<svg width="32" height="32" viewBox="0 0 32 32" fill="none" xmlns="http://www.w3.org/2000/svg">
<path d="M28.1739 7.65237H24.8348L22.9913 4.86976C22.2957 3.82628 21.0783 3.2002 19.8261 3.2002H12.1739C10.9217 3.2002 9.70435 3.82628 9.0087 4.86976L7.16522 7.65237H3.82609C1.70435 7.65237 0 9.35672 0 11.4785V24.9741C0 27.0958 1.70435 28.8002 3.82609 28.8002H28.1739C30.2957 28.8002 32 27.0958 32 24.9741V11.4785C32 9.35672 30.2957 7.65237 28.1739 7.65237ZM16 25.6698C11.2348 25.6698 7.37391 21.8089 7.37391 17.0437C7.37391 12.2785 11.2348 8.45237 16 8.45237C20.7652 8.45237 24.6261 12.3132 24.6261 17.0785C24.6261 21.8089 20.7652 25.6698 16 25.6698ZM27.687 13.0437C27.6522 13.0437 27.6174 13.0437 27.5478 13.0437H26.1565C25.5304 13.0089 25.0435 12.4872 25.0783 11.8611C25.113 11.2698 25.5652 10.8176 26.1565 10.7828H27.5478C28.1739 10.748 28.6957 11.235 28.7304 11.8611C28.7652 12.4872 28.313 13.0089 27.687 13.0437Z" fill="white"/>
<path d="M16 12.2783C13.3565 12.2783 11.2 14.4348 11.2 17.0783C11.2 19.7218 13.3565 21.8435 16 21.8435C18.6434 21.8435 20.8 19.687 20.8 17.0435C20.8 14.4001 18.6434 12.2783 16 12.2783Z" fill="white"/>
</svg>
