<svg width="16" height="16" viewBox="0 0 16 16" fill="none" xmlns="http://www.w3.org/2000/svg">
<path d="M7.99658 0.109375C12.3526 0.109445 15.8843 3.64101 15.8843 7.99707C15.8842 12.0058 12.8928 15.313 9.021 15.8154V9.72559H10.7388L10.9663 7.58105H9.021L9.02393 6.50781C9.02395 5.94888 9.0775 5.64947 9.88037 5.64941H10.9546V3.50488H9.23682C7.17346 3.50488 6.44691 4.5448 6.44678 6.29395V7.58203H5.16064V9.72656H6.44678V15.7314C6.57138 15.7563 6.6971 15.778 6.82373 15.7969C3.02391 15.2304 0.10895 11.9546 0.108887 7.99707C0.108887 3.64097 3.64048 0.109375 7.99658 0.109375Z" fill="black"/>
</svg>
