<svg width="42" height="46" viewBox="0 0 42 46" fill="none" xmlns="http://www.w3.org/2000/svg">
<rect width="42" height="46" fill="#1E1E1E"/>
<g id="Final Design">
<path d="M-380 -339C-380 -340.105 -379.105 -341 -378 -341H19418C19419.1 -341 19420 -340.105 19420 -339V9569C19420 9570.1 19419.1 9571 19418 9571H-378C-379.104 9571 -380 9570.1 -380 9569V-339Z" fill="#444444"/>
<path d="M-378 -341V-340H19418V-341V-342H-378V-341ZM19420 -339H19419V9569H19420H19421V-339H19420ZM19418 9571V9570H-378V9571V9572H19418V9571ZM-380 9569H-379V-339H-380H-381V9569H-380ZM-378 9571V9570C-378.552 9570 -379 9569.55 -379 9569H-380H-381C-381 9570.66 -379.656 9572 -378 9572V9571ZM19420 9569H19419C19419 9569.55 19418.6 9570 19418 9570V9571V9572C19419.7 9572 19421 9570.66 19421 9569H19420ZM19418 -341V-340C19418.6 -340 19419 -339.552 19419 -339H19420H19421C19421 -340.657 19419.7 -342 19418 -342V-341ZM-378 -341V-342C-379.657 -342 -381 -340.657 -381 -339H-380H-379C-379 -339.552 -378.552 -340 -378 -340V-341Z" fill="white" fill-opacity="0.1"/>
<g id="Home Page" clip-path="url(#clip0_658_1468)">
<rect width="1440" height="4841" transform="translate(-100 -73)" fill="white"/>
<g id="Frame 2147227602">
<g id="Background+Shadow">
<rect width="1440" height="88" transform="translate(-100 -21)" fill="white"/>
<g id="Frame 1410087324">
<g id="Frame 2147227542">
<g id="Group 1261157554">
<path id="Vector" d="M16.2587 13.7703C12.1442 16.5097 9.8995 20.2855 9.69496 25.0409C9.49041 29.7765 11.4942 33.6523 15.3571 36.838C14.639 36.838 14.0958 36.8024 13.5617 36.8486C13.0882 36.8895 12.7753 36.7152 12.4564 36.416C11.2048 35.2455 10.1025 33.9591 9.37904 32.4478C8.66615 30.9561 8.10327 29.4015 7.58811 28.1515C7.89645 31.1409 9.11162 34.1258 11.3276 36.8304C11.0707 36.844 10.9192 36.8577 10.7677 36.8592C9.20202 36.8728 7.63508 36.8854 6.06688 36.8971C3.24942 36.9183 1.39637 35.2114 1.2994 32.5455C1.17895 29.2341 1.03652 25.9227 0.891062 22.612C0.848638 21.6401 0.765304 20.6696 0.700152 19.6976C0.655592 19.7425 0.620702 19.796 0.597639 19.8549C0.574577 19.9138 0.56383 19.9768 0.56606 20.04C0.377422 24.1643 0.176661 28.2879 0.00620408 32.4122C-0.140767 35.9895 2.33578 38.4441 6.13052 38.4865C10.0071 38.5312 13.8844 38.541 17.7617 38.5834C18.1371 38.5905 18.5084 38.6633 18.8587 38.7986C19.0504 38.8744 19.2428 38.9441 19.4345 39.0115L20.1867 37.613C15.0587 35.8024 11.348 31.1129 11.3109 25.656C11.2624 18.5893 17.3822 12.796 24.9247 12.7703C27.5683 12.7585 30.161 13.4967 32.402 14.8991L33.1596 13.4885C28.0823 10.3998 21.361 10.3733 16.2587 13.7703Z" fill="black"/>
<path id="Vector_2" d="M36.5372 7.2089L35.7107 8.74756C34.7834 8.44452 34.0683 7.81421 33.5508 6.8642C33.1379 6.10662 32.7076 5.35888 32.2811 4.60811C31.8114 3.78083 31.069 3.37174 30.0788 3.3634C26.6444 3.33461 23.21 3.30936 19.7757 3.28764C18.7203 3.28007 17.9226 3.70583 17.4067 4.58236C16.9393 5.37706 16.4794 6.17329 16.0036 6.96496C15.2718 8.1771 14.1582 8.76725 12.6756 8.72256C10.4074 8.65513 8.13916 8.58165 5.87095 8.51422C3.55805 8.44528 1.6103 9.75439 0.90347 11.8476C0.855742 11.9885 0.801196 12.1279 0.751953 12.2681C0.773923 9.9953 2.96334 7.91952 5.50428 7.77937C7.78992 7.65437 10.0793 7.58467 12.3688 7.55209C13.5983 7.53391 14.4211 7.06648 14.9112 6.00131C15.2453 5.27327 15.6385 4.5672 16.0324 3.86492C16.7771 2.53991 17.9446 1.75126 19.5438 1.72399C23.1803 1.66111 26.8167 1.62247 30.4485 1.65581C32.0144 1.6702 33.1705 2.48309 33.922 3.7725C34.3864 4.56796 34.8274 5.37555 35.2622 6.18692C35.5524 6.73163 35.9781 7.07027 36.5372 7.2089Z" fill="black"/>
<path id="Vector_3" d="M34.7222 10.5856L34.2555 11.4546C31.6472 9.91894 28.6108 9.07348 25.0888 9.04166C18.0659 8.97726 12.8841 12.1743 9.1416 17.7024C10.6348 13.466 16.2099 7.78786 24.863 7.74922C28.7524 7.73179 32.0858 8.87802 34.7222 10.5856Z" fill="black"/>
<path id="Vector_4" d="M27.5943 23.8396L22.573 33.1753C21.4343 32.8647 20.3716 32.3231 19.451 31.5844C16.3161 29.0593 15.6229 24.7055 17.826 21.3805C19.9109 18.235 24.3708 16.8054 27.8413 18.2244C26.1905 19.16 25.4261 20.4539 26.0988 22.2161C26.3928 22.9721 26.9041 23.5237 27.5943 23.8396Z" fill="black"/>
<path id="Vector_5" d="M40.1914 0.272461L15.957 45.3768" stroke="black" stroke-width="0.378792" stroke-miterlimit="10" stroke-linecap="round"/>
<path id="Vector_6" d="M41.3018 0.623047L17.0674 45.7274" stroke="black" stroke-width="0.378792" stroke-miterlimit="10" stroke-linecap="round"/>
</g>
<g id="Frame 2147227541">
<path id="CAMERA" d="M46.5511 33.2077H45.8645C45.8239 33.0102 45.7528 32.8367 45.6513 32.6872C45.5516 32.5377 45.4298 32.4122 45.2858 32.3107C45.1437 32.2073 44.9859 32.1298 44.8124 32.0781C44.6389 32.0264 44.458 32.0006 44.2697 32.0006C43.9264 32.0006 43.6154 32.0873 43.3367 32.2608C43.0598 32.4343 42.8393 32.69 42.675 33.0278C42.5126 33.3655 42.4314 33.7799 42.4314 34.2709C42.4314 34.7618 42.5126 35.1762 42.675 35.514C42.8393 35.8518 43.0598 36.1074 43.3367 36.2809C43.6154 36.4544 43.9264 36.5412 44.2697 36.5412C44.458 36.5412 44.6389 36.5153 44.8124 36.4636C44.9859 36.412 45.1437 36.3354 45.2858 36.2338C45.4298 36.1305 45.5516 36.004 45.6513 35.8545C45.7528 35.7032 45.8239 35.5297 45.8645 35.334H46.5511C46.4994 35.6238 46.4053 35.8831 46.2687 36.112C46.1321 36.3409 45.9623 36.5356 45.7593 36.6962C45.5562 36.8549 45.3283 36.9758 45.0754 37.0589C44.8244 37.1419 44.5558 37.1835 44.2697 37.1835C43.7861 37.1835 43.3561 37.0654 42.9796 36.8291C42.603 36.5928 42.3068 36.2569 42.0908 35.8213C41.8749 35.3857 41.7669 34.8689 41.7669 34.2709C41.7669 33.6728 41.8749 33.156 42.0908 32.7204C42.3068 32.2848 42.603 31.9489 42.9796 31.7127C43.3561 31.4764 43.7861 31.3583 44.2697 31.3583C44.5558 31.3583 44.8244 31.3998 45.0754 31.4829C45.3283 31.5659 45.5562 31.6877 45.7593 31.8483C45.9623 32.0071 46.1321 32.2009 46.2687 32.4297C46.4053 32.6568 46.4994 32.9161 46.5511 33.2077ZM47.8465 37.106H47.1632L49.1394 31.7241H49.8121L51.7883 37.106H51.105L49.4968 32.5755H49.4547L47.8465 37.106ZM48.0987 35.0037H50.8527V35.5818H48.0987V35.0037ZM52.6266 31.7241H53.4044L55.2334 36.1915H55.2965L57.1255 31.7241H57.9033V37.106H57.2937V33.017H57.2411L55.5593 37.106H54.9706L53.2888 33.017H53.2362V37.106H52.6266V31.7241ZM59.21 37.106V31.7241H62.4581V32.3022H59.8617V34.1207H62.2899V34.6988H59.8617V36.5278H62.5001V37.106H59.21ZM63.6327 37.106V31.7241H65.4512C65.8717 31.7241 66.2168 31.7959 66.4866 31.9396C66.7564 32.0815 66.9561 32.2768 67.0858 32.5256C67.2154 32.7743 67.2802 33.0573 67.2802 33.3744C67.2802 33.6915 67.2154 33.9727 67.0858 34.2179C66.9561 34.4632 66.7573 34.6559 66.4892 34.7961C66.2212 34.9345 65.8787 35.0037 65.4617 35.0037H63.9901V34.415H65.4407C65.728 34.415 65.9593 34.373 66.1345 34.2889C66.3114 34.2048 66.4393 34.0857 66.5181 33.9315C66.5987 33.7756 66.639 33.5899 66.639 33.3744C66.639 33.1589 66.5987 32.9706 66.5181 32.8094C66.4376 32.6482 66.3088 32.5238 66.1318 32.4362C65.9549 32.3469 65.721 32.3022 65.4302 32.3022H64.2844V37.106H63.6327ZM66.166 34.6883L67.4905 37.106H66.7336L65.4302 34.6883H66.166ZM68.5869 37.106H67.9037L69.8798 31.7241H70.5526L72.5287 37.106H71.8455L70.2372 32.5755H70.1952L68.5869 37.106ZM68.8392 35.0037H71.5932V35.5818H68.8392V35.0037Z" fill="black"/>
</g>
</g>
</g>
</g>
</g>
</g>
</g>
<defs>
<clipPath id="clip0_658_1468">
<rect width="1440" height="4841" fill="white" transform="translate(-100 -73)"/>
</clipPath>
</defs>
</svg>
