<svg width="21" height="20" viewBox="0 0 21 20" fill="none" xmlns="http://www.w3.org/2000/svg">
<path d="M10.1566 1.66699C5.56491 1.66699 1.82324 5.40866 1.82324 10.0003C1.82324 14.592 5.56491 18.3337 10.1566 18.3337C14.7482 18.3337 18.4899 14.592 18.4899 10.0003C18.4899 5.40866 14.7482 1.66699 10.1566 1.66699ZM13.7816 12.9753C13.6649 13.1753 13.4566 13.2837 13.2399 13.2837C13.1316 13.2837 13.0232 13.2587 12.9232 13.192L10.3399 11.6503C9.69824 11.267 9.22324 10.4253 9.22324 9.68366V6.26699C9.22324 5.92533 9.50658 5.64199 9.84824 5.64199C10.1899 5.64199 10.4732 5.92533 10.4732 6.26699V9.68366C10.4732 9.98366 10.7232 10.4253 10.9816 10.5753L13.5649 12.117C13.8649 12.292 13.9649 12.6753 13.7816 12.9753Z" fill="white"/>
</svg>
