<svg width="16" height="18" viewBox="0 0 16 18" fill="none" xmlns="http://www.w3.org/2000/svg">
<path d="M15.3399 6.04134C14.4649 2.19134 11.1066 0.458008 8.15657 0.458008C8.15657 0.458008 8.15657 0.458008 8.14824 0.458008C5.20657 0.458008 1.83991 2.18301 0.964907 6.03301C-0.010093 10.333 2.62324 13.9747 5.00657 16.2663C5.88991 17.1163 7.02324 17.5413 8.15657 17.5413C9.28991 17.5413 10.4232 17.1163 11.2982 16.2663C13.6816 13.9747 16.3149 10.3413 15.3399 6.04134ZM8.15657 10.2163C6.70657 10.2163 5.53157 9.04134 5.53157 7.59134C5.53157 6.14134 6.70657 4.96634 8.15657 4.96634C9.60657 4.96634 10.7816 6.14134 10.7816 7.59134C10.7816 9.04134 9.60657 10.2163 8.15657 10.2163Z" fill="white"/>
</svg>
