<svg width="21" height="20" viewBox="0 0 21 20" fill="none" xmlns="http://www.w3.org/2000/svg">
<path d="M9.36491 12.4587L7.82324 14.0003C7.49824 14.3253 6.98158 14.3253 6.64824 14.0087C6.55658 13.917 6.46491 13.8337 6.37324 13.742C5.51491 12.8753 4.73991 11.967 4.04824 11.017C3.36491 10.067 2.81491 9.11699 2.41491 8.17533C2.02324 7.22533 1.82324 6.31699 1.82324 5.45033C1.82324 4.88366 1.92324 4.34199 2.12324 3.84199C2.32324 3.33366 2.63991 2.86699 3.08158 2.45033C3.61491 1.92533 4.19824 1.66699 4.81491 1.66699C5.04824 1.66699 5.28158 1.71699 5.48991 1.81699C5.70658 1.91699 5.89824 2.06699 6.04824 2.28366L7.98158 5.00866C8.13158 5.21699 8.23991 5.40866 8.31491 5.59199C8.38991 5.76699 8.43158 5.94199 8.43158 6.10033C8.43158 6.30033 8.37324 6.50033 8.25658 6.69199C8.14824 6.88366 7.98991 7.08366 7.78991 7.28366L7.15658 7.94199C7.06491 8.03366 7.02324 8.14199 7.02324 8.27533C7.02324 8.34199 7.03158 8.40033 7.04824 8.46699C7.07324 8.53366 7.09824 8.58366 7.11491 8.63366C7.26491 8.90866 7.52324 9.26699 7.88991 9.70033C8.26491 10.1337 8.66491 10.5753 9.09824 11.017C9.18157 11.1003 9.27324 11.1837 9.35658 11.267C9.68991 11.592 9.69824 12.1253 9.36491 12.4587Z" fill="white"/>
<path d="M18.4649 15.2752C18.4649 15.5085 18.4233 15.7502 18.3399 15.9835C18.3149 16.0502 18.2899 16.1169 18.2566 16.1835C18.1149 16.4835 17.9316 16.7669 17.6899 17.0335C17.2816 17.4835 16.8316 17.8085 16.3233 18.0169C16.3149 18.0169 16.3066 18.0252 16.2983 18.0252C15.8066 18.2252 15.2733 18.3335 14.6983 18.3335C13.8483 18.3335 12.9399 18.1335 11.9816 17.7252C11.0233 17.3169 10.0649 16.7669 9.11495 16.0752C8.78995 15.8335 8.46495 15.5919 8.15662 15.3335L10.8816 12.6085C11.1149 12.7835 11.3233 12.9169 11.4983 13.0085C11.5399 13.0252 11.5899 13.0502 11.6483 13.0752C11.7149 13.1002 11.7816 13.1085 11.8566 13.1085C11.9983 13.1085 12.1066 13.0585 12.1983 12.9669L12.8316 12.3419C13.0399 12.1335 13.2399 11.9752 13.4316 11.8752C13.6233 11.7585 13.8149 11.7002 14.0233 11.7002C14.1816 11.7002 14.3483 11.7335 14.5316 11.8085C14.7149 11.8835 14.9066 11.9919 15.1149 12.1335L17.8733 14.0919C18.0899 14.2419 18.2399 14.4169 18.3316 14.6252C18.4149 14.8335 18.4649 15.0419 18.4649 15.2752Z" fill="white"/>
</svg>
