<svg width="18" height="16" viewBox="0 0 18 16" fill="none" xmlns="http://www.w3.org/2000/svg">
<path d="M13.3232 0.916992H4.98991C2.48991 0.916992 0.823242 2.16699 0.823242 5.08366V10.917C0.823242 13.8337 2.48991 15.0837 4.98991 15.0837H13.3232C15.8232 15.0837 17.4899 13.8337 17.4899 10.917V5.08366C17.4899 2.16699 15.8232 0.916992 13.3232 0.916992ZM13.7149 5.99199L11.1066 8.07533C10.5566 8.51699 9.85658 8.73366 9.15658 8.73366C8.45658 8.73366 7.74824 8.51699 7.20658 8.07533L4.59824 5.99199C4.33158 5.77533 4.28991 5.37533 4.49824 5.10866C4.71491 4.84199 5.10658 4.79199 5.37324 5.00866L7.98158 7.09199C8.61491 7.60033 9.68991 7.60033 10.3232 7.09199L12.9316 5.00866C13.1982 4.79199 13.5982 4.83366 13.8066 5.10866C14.0232 5.37533 13.9816 5.77533 13.7149 5.99199Z" fill="white"/>
</svg>
