<svg width="33" height="28" viewBox="0 0 33 28" fill="none" xmlns="http://www.w3.org/2000/svg">
<path d="M22.1042 6.4777V0.955078H11.2292V6.33295C12.8258 5.53727 14.6245 5.0887 16.5262 5.0887C18.5404 5.0887 20.439 5.59177 22.1042 6.4777Z" fill="white"/>
<path d="M7.81506 8.8833H4.47925V6.44824H2.60425V8.8833H0.666748V12.1257H5.65544C6.19569 10.9267 6.92906 9.83299 7.81506 8.8833Z" fill="white"/>
<path d="M25.2373 8.88379C26.1233 9.83348 26.8566 10.9272 27.3969 12.1262H32.6667V8.88379H25.2373Z" fill="white"/>
<path d="M16.5262 6.96387C10.9895 6.96387 6.48511 11.4682 6.48511 17.0049C6.48511 22.5416 10.9895 27.0459 16.5262 27.0459C22.0629 27.0459 26.5672 22.5416 26.5672 17.0049C26.5672 11.4682 22.0628 6.96387 16.5262 6.96387ZM16.5262 24.2266C12.5441 24.2266 9.30448 20.987 9.30448 17.0049C9.30448 13.0229 12.5441 9.78318 16.5262 9.78318C20.5082 9.78318 23.7479 13.0229 23.7479 17.0049C23.7479 20.987 20.5082 24.2266 16.5262 24.2266Z" fill="white"/>
<path d="M4.99394 14.001H0.666748V25.5067H8.18587C5.98062 23.3428 4.61012 20.3312 4.61012 17.005C4.61012 15.9677 4.74369 14.961 4.99394 14.001Z" fill="white"/>
<path d="M28.4422 17.0049C28.4422 20.3311 27.0717 23.3429 24.8665 25.5066H32.6667V14.001H28.0584C28.3086 14.961 28.4422 15.9677 28.4422 17.0049Z" fill="white"/>
<path d="M16.5261 22.3516C19.479 22.3516 21.8728 19.9578 21.8728 17.0049C21.8728 14.052 19.479 11.6582 16.5261 11.6582C13.5732 11.6582 11.1794 14.052 11.1794 17.0049C11.1794 19.9578 13.5732 22.3516 16.5261 22.3516Z" fill="white"/>
</svg>
