<svg width="16" height="16" viewBox="0 0 16 16" fill="none" xmlns="http://www.w3.org/2000/svg">
<path d="M5.33424 8C5.33424 6.5273 6.52777 5.33312 8.00047 5.33312C9.47317 5.33312 10.6673 6.5273 10.6673 8C10.6673 9.4727 9.47317 10.6669 8.00047 10.6669C6.52777 10.6669 5.33424 9.4727 5.33424 8ZM3.89258 8C3.89258 10.2688 5.73168 12.1079 8.00047 12.1079C10.2693 12.1079 12.1084 10.2688 12.1084 8C12.1084 5.7312 10.2693 3.8921 8.00047 3.8921C5.73168 3.8921 3.89258 5.7312 3.89258 8ZM11.311 3.72922C11.3109 3.91909 11.3671 4.10471 11.4726 4.26263C11.578 4.42054 11.7279 4.54365 11.9033 4.61638C12.0786 4.68911 12.2717 4.7082 12.4579 4.67123C12.6441 4.63426 12.8152 4.5429 12.9495 4.40869C13.0839 4.27449 13.1754 4.10347 13.2125 3.91726C13.2496 3.73106 13.2306 3.53802 13.1581 3.36258C13.0855 3.18713 12.9625 3.03715 12.8047 2.9316C12.6468 2.82605 12.4612 2.76968 12.2714 2.7696H12.271C12.0165 2.76972 11.7724 2.87085 11.5924 3.05077C11.4124 3.2307 11.3112 3.47471 11.311 3.72922V3.72922ZM4.76848 14.5118C3.98851 14.4763 3.56458 14.3464 3.28285 14.2366C2.90935 14.0912 2.64285 13.918 2.36266 13.6382C2.08247 13.3584 1.90903 13.0922 1.76426 12.7187C1.65444 12.4371 1.52452 12.013 1.48906 11.233C1.45028 10.3898 1.44253 10.1364 1.44253 8.00006C1.44253 5.86368 1.45092 5.61107 1.48906 4.7671C1.52458 3.98714 1.65546 3.5639 1.76426 3.28147C1.90967 2.90797 2.08285 2.64147 2.36266 2.36128C2.64247 2.08109 2.90871 1.90765 3.28285 1.76288C3.56445 1.65306 3.98851 1.52314 4.76848 1.48768C5.61174 1.4489 5.86505 1.44115 8.00047 1.44115C10.1359 1.44115 10.3895 1.44954 11.2334 1.48768C12.0134 1.5232 12.4366 1.65408 12.7191 1.76288C13.0926 1.90765 13.3591 2.08147 13.6392 2.36128C13.9194 2.64109 14.0922 2.90797 14.2376 3.28147C14.3475 3.56307 14.4774 3.98714 14.5128 4.7671C14.5516 5.61107 14.5594 5.86368 14.5594 8.00006C14.5594 10.1364 14.5516 10.3891 14.5128 11.233C14.4773 12.013 14.3468 12.4369 14.2376 12.7187C14.0922 13.0922 13.9191 13.3587 13.6392 13.6382C13.3594 13.9178 13.0926 14.0912 12.7191 14.2366C12.4375 14.3464 12.0134 14.4764 11.2334 14.5118C10.3902 14.5506 10.1369 14.5583 8.00047 14.5583C5.86409 14.5583 5.61148 14.5506 4.76848 14.5118V14.5118ZM4.70224 0.048448C3.85059 0.087232 3.26864 0.222272 2.76042 0.420032C2.23408 0.624256 1.78852 0.89824 1.34327 1.34278C0.898022 1.78733 0.624743 2.2336 0.420519 2.75994C0.22276 3.26848 0.0877201 3.85011 0.0489362 4.70176C0.00951226 5.55475 0.000488281 5.82746 0.000488281 8C0.000488281 10.1725 0.00951226 10.4452 0.0489362 11.2982C0.0877201 12.15 0.22276 12.7315 0.420519 13.2401C0.624743 13.7661 0.898086 14.2129 1.34327 14.6572C1.78845 15.1016 2.23408 15.3752 2.76042 15.58C3.2696 15.7777 3.85059 15.9128 4.70224 15.9516C5.55568 15.9903 5.82793 16 8.00047 16C10.173 16 10.4457 15.991 11.2987 15.9516C12.1504 15.9128 12.732 15.7777 13.2405 15.58C13.7665 15.3752 14.2124 15.1018 14.6577 14.6572C15.1029 14.2127 15.3756 13.7661 15.5804 13.2401C15.7782 12.7315 15.9139 12.1499 15.952 11.2982C15.9908 10.4446 15.9998 10.1725 15.9998 8C15.9998 5.82746 15.9908 5.55475 15.952 4.70176C15.9132 3.85005 15.7782 3.26816 15.5804 2.75994C15.3756 2.23392 15.1022 1.78803 14.6577 1.34278C14.2131 0.897536 13.7665 0.624256 13.2412 0.420032C12.732 0.222272 12.1504 0.086592 11.2993 0.048448C10.4464 0.009664 10.1737 0 8.00111 0C5.82857 0 5.55568 0.009024 4.70224 0.048448Z" fill="black"/>
</svg>
