<svg width="16" height="28" viewBox="0 0 16 28" fill="none" xmlns="http://www.w3.org/2000/svg">
<path d="M1.5 16.5001C1.33113 16.5016 1.16287 16.4797 1 16.4351V19.5001H15V16.4351C14.8371 16.4797 14.6689 16.5016 14.5 16.5001H1.5ZM9.75 18.0001H6.25C6.11739 18.0001 5.99021 17.9474 5.89645 17.8536C5.80268 17.7598 5.75 17.6327 5.75 17.5001C5.75 17.3675 5.80268 17.2403 5.89645 17.1465C5.99021 17.0527 6.11739 17.0001 6.25 17.0001H9.75C9.88261 17.0001 10.0098 17.0527 10.1036 17.1465C10.1973 17.2403 10.25 17.3675 10.25 17.5001C10.25 17.6327 10.1973 17.7598 10.1036 17.8536C10.0098 17.9474 9.88261 18.0001 9.75 18.0001Z" fill="white"/>
<path d="M9.5 22.5H6.5V23.5H9.5V22.5Z" fill="white"/>
<path d="M1 23.5C1 24.163 1.26339 24.7989 1.73223 25.2678C2.20107 25.7366 2.83696 26 3.5 26H12.5C13.163 26 13.7989 25.7366 14.2678 25.2678C14.7366 24.7989 15 24.163 15 23.5V20H1V23.5ZM5.5 22C5.5 21.8674 5.55268 21.7402 5.64645 21.6464C5.74021 21.5527 5.86739 21.5 6 21.5H10C10.1326 21.5 10.2598 21.5527 10.3536 21.6464C10.4473 21.7402 10.5 21.8674 10.5 22V24C10.5 24.1326 10.4473 24.2598 10.3536 24.3536C10.2598 24.4473 10.1326 24.5 10 24.5H6C5.86739 24.5 5.74021 24.4473 5.64645 24.3536C5.55268 24.2598 5.5 24.1326 5.5 24V22Z" fill="white"/>
<path d="M15 9.09003C14.8403 9.02948 14.6708 8.99896 14.5 9.00003H1.5C1.32921 8.99896 1.1597 9.02948 1 9.09003C0.708225 9.19318 0.455499 9.38406 0.276469 9.63649C0.0974393 9.88893 0.000869756 10.1906 0 10.5V14.5C0.00118705 14.8975 0.159603 15.2783 0.440651 15.5594C0.721699 15.8404 1.10254 15.9988 1.5 16H14.5C14.8975 15.9988 15.2783 15.8404 15.5593 15.5594C15.8404 15.2783 15.9988 14.8975 16 14.5V10.5C15.9991 10.1906 15.9026 9.88893 15.7235 9.63649C15.5445 9.38406 15.2918 9.19318 15 9.09003ZM2.5 14C2.5 14.1326 2.44732 14.2598 2.35355 14.3536C2.25979 14.4473 2.13261 14.5 2 14.5C1.86739 14.5 1.74021 14.4473 1.64645 14.3536C1.55268 14.2598 1.5 14.1326 1.5 14V11C1.5 10.8674 1.55268 10.7402 1.64645 10.6465C1.74021 10.5527 1.86739 10.5 2 10.5C2.13261 10.5 2.25979 10.5527 2.35355 10.6465C2.44732 10.7402 2.5 10.8674 2.5 11V14ZM4 14C4 14.1326 3.94732 14.2598 3.85355 14.3536C3.75979 14.4473 3.63261 14.5 3.5 14.5C3.36739 14.5 3.24021 14.4473 3.14645 14.3536C3.05268 14.2598 3 14.1326 3 14V11C3 10.8674 3.05268 10.7402 3.14645 10.6465C3.24021 10.5527 3.36739 10.5 3.5 10.5C3.63261 10.5 3.75979 10.5527 3.85355 10.6465C3.94732 10.7402 4 10.8674 4 11V14ZM5.5 14C5.5 14.1326 5.44732 14.2598 5.35355 14.3536C5.25979 14.4473 5.13261 14.5 5 14.5C4.86739 14.5 4.74021 14.4473 4.64645 14.3536C4.55268 14.2598 4.5 14.1326 4.5 14V11C4.5 10.8674 4.55268 10.7402 4.64645 10.6465C4.74021 10.5527 4.86739 10.5 5 10.5C5.13261 10.5 5.25979 10.5527 5.35355 10.6465C5.44732 10.7402 5.5 10.8674 5.5 11V14ZM7 14C7 14.1326 6.94732 14.2598 6.85355 14.3536C6.75979 14.4473 6.63261 14.5 6.5 14.5C6.36739 14.5 6.24021 14.4473 6.14645 14.3536C6.05268 14.2598 6 14.1326 6 14V11C6 10.8674 6.05268 10.7402 6.14645 10.6465C6.24021 10.5527 6.36739 10.5 6.5 10.5C6.63261 10.5 6.75979 10.5527 6.85355 10.6465C6.94732 10.7402 7 10.8674 7 11V14ZM8.5 14C8.5 14.1326 8.44732 14.2598 8.35355 14.3536C8.25979 14.4473 8.13261 14.5 8 14.5C7.86739 14.5 7.74021 14.4473 7.64645 14.3536C7.55268 14.2598 7.5 14.1326 7.5 14V11C7.5 10.8674 7.55268 10.7402 7.64645 10.6465C7.74021 10.5527 7.86739 10.5 8 10.5C8.13261 10.5 8.25979 10.5527 8.35355 10.6465C8.44732 10.7402 8.5 10.8674 8.5 11V14ZM10 14C10 14.1326 9.94732 14.2598 9.85355 14.3536C9.75979 14.4473 9.63261 14.5 9.5 14.5C9.36739 14.5 9.24021 14.4473 9.14645 14.3536C9.05268 14.2598 9 14.1326 9 14V11C9 10.8674 9.05268 10.7402 9.14645 10.6465C9.24021 10.5527 9.36739 10.5 9.5 10.5C9.63261 10.5 9.75979 10.5527 9.85355 10.6465C9.94732 10.7402 10 10.8674 10 11V14ZM11.5 14C11.5 14.1326 11.4473 14.2598 11.3536 14.3536C11.2598 14.4473 11.1326 14.5 11 14.5C10.8674 14.5 10.7402 14.4473 10.6464 14.3536C10.5527 14.2598 10.5 14.1326 10.5 14V11C10.5 10.8674 10.5527 10.7402 10.6464 10.6465C10.7402 10.5527 10.8674 10.5 11 10.5C11.1326 10.5 11.2598 10.5527 11.3536 10.6465C11.4473 10.7402 11.5 10.8674 11.5 11V14ZM13 14C13 14.1326 12.9473 14.2598 12.8536 14.3536C12.7598 14.4473 12.6326 14.5 12.5 14.5C12.3674 14.5 12.2402 14.4473 12.1464 14.3536C12.0527 14.2598 12 14.1326 12 14V11C12 10.8674 12.0527 10.7402 12.1464 10.6465C12.2402 10.5527 12.3674 10.5 12.5 10.5C12.6326 10.5 12.7598 10.5527 12.8536 10.6465C12.9473 10.7402 13 10.8674 13 11V14ZM14.5 14C14.5 14.1326 14.4473 14.2598 14.3536 14.3536C14.2598 14.4473 14.1326 14.5 14 14.5C13.8674 14.5 13.7402 14.4473 13.6464 14.3536C13.5527 14.2598 13.5 14.1326 13.5 14V11C13.5 10.8674 13.5527 10.7402 13.6464 10.6465C13.7402 10.5527 13.8674 10.5 14 10.5C14.1326 10.5 14.2598 10.5527 14.3536 10.6465C14.4473 10.7402 14.5 10.8674 14.5 11V14Z" fill="white"/>
<path d="M3.5 27C3.50079 27.265 3.6064 27.5189 3.79377 27.7062C3.98113 27.8936 4.23503 27.9992 4.5 28H11.5C11.765 27.9992 12.0189 27.8936 12.2062 27.7062C12.3936 27.5189 12.4992 27.265 12.5 27V26.5H3.5V27Z" fill="white"/>
<path d="M14.5 8.5C14.6688 8.4988 14.8371 8.52067 15 8.565V7.5H1V8.565C1.1628 8.52003 1.33111 8.49815 1.5 8.5H14.5Z" fill="white"/>
<path d="M15.5 9.82386e-06H14.62C14.3407 -0.00100227 14.0667 0.0762067 13.8289 0.222895C13.5912 0.369584 13.3993 0.579892 13.275 0.83001L13.13 1.11501C13.0892 1.20557 13.0208 1.28092 12.9346 1.3303C12.8484 1.37969 12.7488 1.40058 12.65 1.39001C12.5466 1.38285 12.4478 1.34396 12.3673 1.27864C12.2868 1.21332 12.2284 1.12475 12.2 1.02501C12.102 0.726046 11.9117 0.465822 11.6566 0.281675C11.4015 0.0975286 11.0946 -0.00107594 10.78 9.82386e-06H5.72C5.40096 0.000203138 5.09029 0.102115 4.83313 0.29094C4.57597 0.479764 4.38571 0.745665 4.29 1.05001C4.25993 1.1447 4.20171 1.22798 4.1231 1.28872C4.04448 1.34947 3.94921 1.3848 3.85 1.39001C3.75122 1.40058 3.65163 1.37969 3.56543 1.3303C3.47923 1.28092 3.41084 1.20557 3.37 1.11501L3.225 0.83001C3.10065 0.579892 2.90876 0.369584 2.67105 0.222895C2.43335 0.0762067 2.15932 -0.00100227 1.88 9.82386e-06H0.5C0.367392 9.82386e-06 0.240214 0.0526883 0.146446 0.146457C0.052678 0.240225 0 0.367402 0 0.50001V4.50001C0.000971207 4.55424 0.00938271 4.60807 0.0249996 4.66001L0.805 7.00001H15.195L15.975 4.66001C15.9906 4.60807 15.999 4.55424 16 4.50001V0.50001C16 0.367402 15.9473 0.240225 15.8536 0.146457C15.7598 0.0526883 15.6326 9.82386e-06 15.5 9.82386e-06Z" fill="white"/>
</svg>
