<svg width="32" height="30" viewBox="0 0 32 30" fill="none" xmlns="http://www.w3.org/2000/svg">
<path d="M30.125 0.5625H1.875C0.84125 0.5625 0 1.40375 0 2.4375V21.0625C0 22.0963 0.84125 22.9375 1.875 22.9375H30.125C31.1588 22.9375 32 22.0963 32 21.0625V2.4375C32 1.40375 31.1588 0.5625 30.125 0.5625Z" fill="white"/>
<path d="M26 27.5625H20.9375V24.8125H11.0625V27.5625H6C5.4825 27.5625 5.0625 27.9825 5.0625 28.5C5.0625 29.0175 5.4825 29.4375 6 29.4375H26C26.5175 29.4375 26.9375 29.0175 26.9375 28.5C26.9375 27.9825 26.5175 27.5625 26 27.5625Z" fill="white"/>
</svg>
