<svg width="33" height="32" viewBox="0 0 33 32" fill="none" xmlns="http://www.w3.org/2000/svg">
<path d="M21.7337 8.00013C21.7315 9.78891 21.1372 11.5267 20.0435 12.9421C19.998 13.0107 19.9737 13.0912 19.9737 13.1735C19.9739 13.2166 19.9827 13.2592 19.9997 13.2988C20.0167 13.3384 20.0415 13.3742 20.0726 13.404C20.1037 13.4339 20.1405 13.4572 20.1807 13.4725C20.221 13.4879 20.2639 13.495 20.307 13.4935C20.3655 13.4925 20.4226 13.4762 20.4728 13.4461C20.523 13.4161 20.5643 13.3734 20.5927 13.3223C21.7627 11.7945 22.3979 9.92442 22.4003 8.00013C22.4009 5.99223 21.7049 4.04631 20.431 2.49426C20.3747 2.42605 20.2936 2.38299 20.2056 2.37456C20.1175 2.36614 20.0298 2.39303 19.9615 2.44933C19.8933 2.50562 19.8503 2.58671 19.8419 2.67476C19.8334 2.7628 19.8603 2.85058 19.9166 2.91879C21.1003 4.3466 21.7436 6.14551 21.7337 8.00013Z" fill="white"/>
<path d="M24.1926 13.482C25.3622 11.9542 25.9973 10.0843 26 8.16023C26.0103 6.15064 25.3131 4.20151 24.0305 2.65437C23.9742 2.58617 23.8931 2.54313 23.8051 2.53472C23.7171 2.5263 23.6293 2.5532 23.5611 2.6095C23.4929 2.6658 23.4499 2.74688 23.4415 2.83491C23.433 2.92294 23.4599 3.0107 23.5162 3.0789C24.6999 4.5067 25.3432 6.30561 25.3333 8.16023C25.3309 9.94902 24.7367 11.6867 23.6432 13.1024C23.5976 13.1709 23.5733 13.2513 23.5733 13.3336C23.5735 13.3767 23.5824 13.4193 23.5994 13.4589C23.6164 13.4985 23.6411 13.5343 23.6722 13.5641C23.7033 13.594 23.7401 13.6173 23.7804 13.6326C23.8206 13.648 23.8636 13.6551 23.9066 13.6536C23.9652 13.6526 24.0224 13.6362 24.0726 13.6061C24.1228 13.576 24.1642 13.5332 24.1926 13.482Z" fill="white"/>
<path d="M15 27.9997C15.001 28.353 15.1418 28.6915 15.3917 28.9414C15.6415 29.1912 15.98 29.332 16.3333 29.333H19C19.3533 29.332 19.6919 29.1912 19.9417 28.9414C20.1915 28.6915 20.3323 28.353 20.3333 27.9997V27.333H15V27.9997Z" fill="white"/>
<path d="M27 21H24.3333C24.2449 21 24.1601 21.0351 24.0976 21.0976C24.0351 21.1601 24 21.2449 24 21.3333C24 21.4217 24.0351 21.5065 24.0976 21.569C24.1601 21.6315 24.2449 21.6667 24.3333 21.6667H27C27.0884 21.6667 27.1732 21.6315 27.2357 21.569C27.2982 21.5065 27.3333 21.4217 27.3333 21.3333C27.3333 21.2449 27.2982 21.1601 27.2357 21.0976C27.1732 21.0351 27.0884 21 27 21Z" fill="white"/>
<path d="M24 16.0003C24 16.0887 24.0351 16.1735 24.0976 16.236C24.1601 16.2985 24.2449 16.3337 24.3333 16.3337H27C27.0884 16.3337 27.1732 16.2985 27.2357 16.236C27.2982 16.1735 27.3333 16.0887 27.3333 16.0003C27.3333 15.9119 27.2982 15.8271 27.2357 15.7646C27.1732 15.7021 27.0884 15.667 27 15.667H24.3333C24.2449 15.667 24.1601 15.7021 24.0976 15.7646C24.0351 15.8271 24 15.9119 24 16.0003Z" fill="white"/>
<path d="M11.6668 12.9337V9.33372C11.6668 8.80328 11.8776 8.29457 12.2526 7.9195C12.6277 7.54443 13.1364 7.33372 13.6668 7.33372C14.1973 7.33372 14.706 7.54443 15.0811 7.9195C15.4561 8.29457 15.6668 8.80328 15.6668 9.33372V12.9337C16.8142 12.4696 17.7644 11.6208 18.3547 10.5329C18.9449 9.44504 19.1384 8.18573 18.902 6.97082C18.6655 5.75592 18.0139 4.66106 17.0588 3.87389C16.1037 3.08672 14.9045 2.65625 13.6668 2.65625C12.4291 2.65625 11.23 3.08672 10.2749 3.87389C9.31974 4.66106 8.66813 5.75592 8.43171 6.97082C8.19529 8.18573 8.38877 9.44504 8.979 10.5329C9.56924 11.6208 10.5195 12.4696 11.6668 12.9337Z" fill="white"/>
<path d="M21.6668 16H16.3335C15.9799 16 15.6407 15.8595 15.3907 15.6095C15.1406 15.3594 15.0002 15.0203 15.0002 14.6667V9.33333C15.0002 8.97971 14.8597 8.64057 14.6096 8.39052C14.3596 8.14048 14.0205 8 13.6668 8C13.3132 8 12.9741 8.14048 12.724 8.39052C12.474 8.64057 12.3335 8.97971 12.3335 9.33333V16.9144C12.3335 17.1781 12.2553 17.4359 12.1088 17.6552C11.9623 17.8744 11.754 18.0453 11.5104 18.1462C11.2668 18.2471 10.9987 18.2735 10.74 18.2221C10.4814 18.1707 10.2438 18.0437 10.0574 17.8572L8.4935 16.2933C8.36941 16.1692 8.22204 16.0709 8.05985 16.0039C7.89765 15.9368 7.72383 15.9025 7.54834 15.9028C7.37285 15.9031 7.19914 15.9381 7.03719 16.0057C6.87523 16.0732 6.72822 16.1721 6.60456 16.2967L6.6035 16.2977C6.35491 16.5481 6.21569 16.8868 6.21631 17.2396C6.21694 17.5924 6.35736 17.9305 6.60683 18.18L11.9435 23.5167C12.1932 23.7667 12.3335 24.1056 12.3335 24.4589V25.3333C12.3335 25.687 12.474 26.0261 12.724 26.2761C12.9741 26.5262 13.3132 26.6667 13.6668 26.6667H14.6668V21.9663C14.1724 21.8827 13.7273 21.6164 13.4199 21.2202C13.1126 20.824 12.9652 20.3267 13.0072 19.827C13.0491 19.3273 13.2772 18.8615 13.6464 18.5221C14.0155 18.1826 14.4987 17.9942 15.0002 17.9942C15.5016 17.9942 15.9848 18.1826 16.354 18.5221C16.7231 18.8615 16.9512 19.3273 16.9932 19.827C17.0351 20.3267 16.8878 20.824 16.5804 21.2202C16.273 21.6164 15.828 21.8827 15.3335 21.9663V26.6667H18.6668V24.6329C18.1724 24.5494 17.7273 24.2831 17.4199 23.8868C17.1126 23.4906 16.9652 22.9934 17.0072 22.4937C17.0491 21.9939 17.2772 21.5282 17.6464 21.1887C18.0155 20.8493 18.4987 20.6609 19.0002 20.6609C19.5016 20.6609 19.9848 20.8493 20.354 21.1887C20.7231 21.5282 20.9512 21.9939 20.9932 22.4937C21.0351 22.9934 20.8878 23.4906 20.5804 23.8868C20.273 24.2831 19.828 24.5494 19.3335 24.6329V26.6667H21.6668C22.0205 26.6667 22.3596 26.5262 22.6096 26.2761C22.8597 26.0261 23.0002 25.687 23.0002 25.3333V17.3333C23.0002 16.9797 22.8597 16.6406 22.6096 16.3905C22.3596 16.1405 22.0205 16 21.6668 16Z" fill="white"/>
<path d="M15.0003 21.3337C15.7367 21.3337 16.3337 20.7367 16.3337 20.0003C16.3337 19.2639 15.7367 18.667 15.0003 18.667C14.2639 18.667 13.667 19.2639 13.667 20.0003C13.667 20.7367 14.2639 21.3337 15.0003 21.3337Z" fill="white"/>
<path d="M19.0003 23.9997C19.7367 23.9997 20.3337 23.4027 20.3337 22.6663C20.3337 21.93 19.7367 21.333 19.0003 21.333C18.2639 21.333 17.667 21.93 17.667 22.6663C17.667 23.4027 18.2639 23.9997 19.0003 23.9997Z" fill="white"/>
</svg>
