<svg width="32" height="28" viewBox="0 0 32 28" fill="none" xmlns="http://www.w3.org/2000/svg">
<path d="M31.8076 14.4425C31.4615 13.8272 30.6538 13.5964 29.9999 13.981L25.6154 16.5194L24.5 17.1733V23.2501L25.5384 23.8655C25.5769 23.8655 25.5769 23.904 25.6154 23.904L29.923 26.4039C30.1153 26.5578 30.3845 26.6347 30.6538 26.6347C31.3845 26.6347 31.9614 26.0578 31.9614 25.327V20.1732L31.9999 15.0964C31.9999 14.8656 31.9614 14.6348 31.8076 14.4425Z" fill="white"/>
<path d="M6.19262 12.4809C9.61566 12.4809 12.3849 9.71171 12.3849 6.28867C12.3849 2.86563 9.61566 0.0964355 6.19262 0.0964355C2.76959 0.0964355 0.000390499 2.86563 0.000390499 6.28867C-0.0380706 9.71171 2.76959 12.4809 6.19262 12.4809ZM6.19262 3.75024C7.61568 3.75024 8.73106 4.90407 8.73106 6.28867C8.73106 7.71173 7.57722 8.8271 6.19262 8.8271C4.80802 8.8271 3.65419 7.67327 3.65419 6.28867C3.61573 4.86561 4.76956 3.75024 6.19262 3.75024Z" fill="white"/>
<path d="M21.8845 12.827C20.8845 13.327 19.7692 13.6347 18.5769 13.6347C17.1153 13.6347 15.7307 13.2116 14.5769 12.4424H10.1924C9.03852 13.2116 7.65392 13.6347 6.1924 13.6347C5.00011 13.6347 3.88474 13.3654 2.88475 12.827C2.00014 13.327 1.38477 14.327 1.38477 15.4039V24.7884C1.38477 26.5191 2.80783 27.9037 4.50011 27.9037H20.3076C22.0384 27.9037 23.423 26.4807 23.423 24.7884V15.4039C23.3845 14.327 22.7691 13.327 21.8845 12.827Z" fill="white"/>
<path d="M18.577 12.4809C22 12.4809 24.7692 9.71171 24.7692 6.28867C24.7692 2.86563 22 0.0964355 18.577 0.0964355C15.154 0.0964355 12.3848 2.86563 12.3848 6.28867C12.3848 9.71171 15.154 12.4809 18.577 12.4809ZM18.577 3.75024C20.0001 3.75024 21.1154 4.90407 21.1154 6.28867C21.1154 7.71173 19.9616 8.8271 18.577 8.8271C17.1924 8.8271 16.0386 7.67327 16.0386 6.28867C16.0386 4.86561 17.1539 3.75024 18.577 3.75024Z" fill="white"/>
</svg>
