<svg width="32" height="26" viewBox="0 0 32 26" fill="none" xmlns="http://www.w3.org/2000/svg">
<path d="M31.4853 14.1649C31.5347 15.3464 31.1135 16.4992 30.3141 17.3704C29.5146 18.2417 28.4022 18.7603 27.2209 18.8124C27.1518 18.8156 27.0828 18.8172 27.014 18.8172C26.7001 18.817 26.3872 18.783 26.0806 18.7159C25.1708 20.1206 23.9779 21.3199 22.5781 22.2372C21.1783 23.1544 19.6025 23.7694 17.9514 24.0428C17.7561 24.6165 17.3665 25.104 16.8499 25.4209C16.3334 25.7378 15.7223 25.8643 15.1224 25.7785C14.5225 25.6927 13.9714 25.3999 13.5644 24.9509C13.1574 24.5019 12.9201 23.9247 12.8934 23.3193C12.8668 22.7138 13.0526 22.1181 13.4186 21.6351C13.7846 21.1521 14.3079 20.8121 14.898 20.674C15.4881 20.5359 16.1079 20.6082 16.6503 20.8786C17.1926 21.149 17.6235 21.6004 17.8684 22.1547C20.1929 21.7248 22.2928 20.4929 23.8022 18.6736C25.3116 16.8543 26.1347 14.5631 26.1281 12.1992C26.1281 6.61448 21.5846 2.07104 16 2.07104C10.4153 2.07104 5.87183 6.61448 5.87183 12.1992C5.87152 13.926 6.31286 15.6243 7.15389 17.1325C7.18239 17.1823 7.20379 17.2358 7.21745 17.2915C7.29869 17.5173 7.29 17.7657 7.1932 17.9853C7.09639 18.2048 6.91888 18.3788 6.69739 18.4711C6.15505 18.6994 5.57255 18.8169 4.98414 18.8168C4.91489 18.8168 4.84549 18.8152 4.77595 18.812C3.59513 18.7592 2.48343 18.2403 1.68461 17.3691C0.885785 16.4979 0.465044 15.3454 0.514639 14.1645C0.534577 13.6935 0.523452 13.2734 0.512577 12.867C0.502452 12.4845 0.49189 12.0889 0.509265 11.676C0.561119 10.523 1.05714 9.43465 1.89342 8.63908C2.72971 7.84351 3.8414 7.40239 4.99564 7.40811C6.84914 3.16736 11.0837 0.196045 16 0.196045C20.9162 0.196045 25.1508 3.16736 27.0043 7.40817C28.1587 7.40159 29.2707 7.84233 30.1072 8.63792C30.9436 9.43351 31.4394 10.5221 31.4906 11.6754C31.508 12.0888 31.4975 12.4844 31.4873 12.8669C31.4765 13.2733 31.4653 13.6937 31.4853 14.1649ZM23.8628 12.1992C23.8623 13.4038 23.5852 14.5922 23.0528 15.6727C22.5204 16.7533 21.7469 17.6971 20.7921 18.4314C19.8372 19.1658 18.7264 19.671 17.5454 19.9081C16.3644 20.1453 15.1447 20.108 13.9803 19.7992L10.7978 21.6371C10.6372 21.7298 10.4527 21.7729 10.2677 21.7608C10.0826 21.7486 9.90534 21.6819 9.75822 21.569C9.61111 21.4562 9.50077 21.3022 9.44117 21.1266C9.38157 20.951 9.37538 20.7617 9.42339 20.5825L10.2368 17.5483C8.88977 16.0923 8.14029 14.1826 8.13745 12.1992C8.13745 7.86242 11.6644 4.33454 16 4.33454C20.3355 4.33454 23.8628 7.86242 23.8628 12.1992ZM13.814 12.1992C13.814 11.9505 13.7152 11.7121 13.5394 11.5363C13.3636 11.3604 13.1252 11.2617 12.8765 11.2617H12.875C12.6896 11.262 12.5085 11.3173 12.3546 11.4205C12.2006 11.5237 12.0808 11.6703 12.0101 11.8416C11.9394 12.013 11.9211 12.2014 11.9574 12.3831C11.9938 12.5649 12.0832 12.7318 12.2144 12.8627C12.3456 12.9936 12.5126 13.0828 12.6944 13.1188C12.8763 13.1548 13.0647 13.1361 13.2359 13.0651C13.4071 12.9941 13.5534 12.874 13.6563 12.7198C13.7593 12.5657 13.8142 12.3845 13.8142 12.1992H13.814ZM16.9376 12.1992C16.9376 12.1685 16.9359 12.1378 16.9326 12.1073C16.9297 12.0767 16.9251 12.0462 16.919 12.016C16.9134 11.986 16.9058 11.9564 16.8964 11.9273C16.8877 11.8979 16.8771 11.8692 16.8658 11.8404C16.8546 11.8117 16.8408 11.7848 16.8265 11.7579C16.8122 11.7309 16.7965 11.7046 16.7796 11.6792C16.7625 11.6535 16.7441 11.6286 16.7245 11.6048C16.7053 11.5809 16.6846 11.5582 16.6627 11.5367C16.6415 11.5148 16.6183 11.4942 16.5946 11.4742C16.5708 11.4554 16.5458 11.4367 16.5201 11.4198C16.4947 11.4028 16.4685 11.3872 16.4415 11.3729C16.4145 11.3585 16.3865 11.3454 16.3583 11.3335C16.3301 11.3218 16.3013 11.3115 16.2721 11.3029C16.2136 11.2841 16.1532 11.272 16.0921 11.2667C16.0003 11.2578 15.9076 11.2622 15.8171 11.2798C15.7869 11.2859 15.7571 11.2937 15.7278 11.3029C15.6985 11.3115 15.6697 11.3217 15.6415 11.3335C15.6134 11.3454 15.5853 11.3585 15.5584 11.3729C15.5315 11.3873 15.5053 11.4029 15.4796 11.4198C15.4539 11.4367 15.429 11.4554 15.4059 11.4742C15.3815 11.4942 15.359 11.5148 15.3371 11.5367C15.3152 11.5582 15.2945 11.5809 15.2752 11.6048C15.2558 11.6286 15.2377 11.6535 15.2209 11.6792C15.2037 11.7046 15.1879 11.7309 15.1734 11.7579C15.159 11.7847 15.146 11.8122 15.1346 11.8404C15.1227 11.8688 15.1123 11.8978 15.1033 11.9273C15.0946 11.956 15.0871 11.986 15.0809 12.016C15.0747 12.0462 15.0701 12.0767 15.0671 12.1073C15.064 12.1379 15.0627 12.1685 15.0627 12.1992C15.0627 12.2298 15.064 12.261 15.0671 12.2917C15.0702 12.3221 15.0748 12.3523 15.0809 12.3823C15.0871 12.4123 15.0946 12.4423 15.1033 12.4717C15.1123 12.5009 15.1227 12.5297 15.1346 12.5579C15.146 12.5863 15.159 12.6141 15.1734 12.641C15.1877 12.6679 15.204 12.6942 15.2209 12.7198C15.2377 12.7453 15.2559 12.7699 15.2752 12.7935C15.2947 12.8175 15.3154 12.8404 15.3371 12.8623C15.359 12.8835 15.3815 12.9048 15.4059 12.9242C15.4294 12.9437 15.454 12.9618 15.4796 12.9785C15.5053 12.9954 15.5315 13.0117 15.5584 13.026C15.6127 13.0543 15.6693 13.0778 15.7278 13.096C15.7571 13.1048 15.7871 13.1123 15.8171 13.1185C15.8773 13.1309 15.9387 13.1369 16.0002 13.1367C16.2485 13.136 16.4866 13.0374 16.6627 12.8623C16.7059 12.8184 16.745 12.7707 16.7796 12.7198C16.7965 12.6942 16.8121 12.6679 16.8265 12.641C16.8408 12.6142 16.854 12.586 16.8658 12.5579C16.8777 12.5298 16.8877 12.5004 16.8964 12.4717C16.9057 12.4424 16.9133 12.4125 16.919 12.3823C16.9251 12.3523 16.9296 12.3221 16.9326 12.2917C16.9358 12.2609 16.9374 12.23 16.9375 12.199L16.9376 12.1992ZM20.0626 12.1992C20.0626 11.9505 19.9639 11.7121 19.7881 11.5363C19.6122 11.3604 19.3738 11.2617 19.1251 11.2617H19.1233C18.938 11.262 18.7569 11.3173 18.603 11.4205C18.449 11.5238 18.3292 11.6703 18.2585 11.8417C18.1878 12.013 18.1695 12.2014 18.2059 12.3832C18.2423 12.5649 18.3317 12.7318 18.4629 12.8627C18.5941 12.9937 18.7611 13.0828 18.9429 13.1188C19.1247 13.1548 19.3131 13.1361 19.4843 13.0651C19.6555 12.9941 19.8018 12.874 19.9048 12.7198C20.0077 12.5657 20.0626 12.3845 20.0626 12.1992Z" fill="white"/>
</svg>
