<svg width="32" height="32" viewBox="0 0 32 32" fill="none" xmlns="http://www.w3.org/2000/svg">
<path d="M21.7683 15.9999C21.7683 14.9576 21.7309 13.9503 21.6612 12.9828C20.5167 12.7633 19.5901 11.9232 19.2477 10.8269H10.5553C10.348 12.4238 10.2314 14.1569 10.2314 15.9999C10.2314 17.1305 10.2756 18.2194 10.3572 19.2614C11.4931 19.4864 12.4114 20.3237 12.7519 21.414H21.4126C21.6399 19.7511 21.7683 17.9359 21.7683 15.9999Z" fill="white"/>
<path d="M22.5884 6.75679C23.8522 6.89004 24.8957 7.77322 25.2638 8.95204H30.3613C28.3077 4.78441 24.4931 1.63466 19.8945 0.480225C20.5295 1.33135 21.1082 2.40197 21.6135 3.67822C21.9876 4.62322 22.3134 5.65585 22.5884 6.75679Z" fill="white"/>
<path d="M8.49331 19.4607C8.403 18.3327 8.35656 17.1748 8.35656 15.9999C8.35656 14.2216 8.46288 12.4824 8.66719 10.8269H0.858563C0.302438 12.4503 0 14.1904 0 15.9999C0 17.8993 0.333438 19.7222 0.943687 21.414H6.73625C7.01025 20.5365 7.65863 19.8232 8.49331 19.4607Z" fill="white"/>
<path d="M9.47448 25.4897C8.18254 25.3796 7.11035 24.4874 6.73604 23.2891H1.75879C3.83916 27.3371 7.5956 30.3876 12.1053 31.5197C11.4704 30.6686 10.8917 29.5979 10.3864 28.3217C10.0404 27.4477 9.73585 26.4983 9.47448 25.4897Z" fill="white"/>
<path d="M10.8516 8.952H19.2483C19.4936 8.16663 20.0387 7.51244 20.749 7.12381C19.6268 2.70075 17.7496 0 16.0004 0C14.0218 0 11.8796 3.4565 10.8516 8.952Z" fill="white"/>
<path d="M7.15792 3.29679C7.15792 5.03391 5.74467 6.44722 4.00748 6.44722C3.74423 6.44722 3.48861 6.41429 3.24398 6.35316C2.63011 7.16291 2.09161 8.03266 1.63867 8.95197H8.94673C9.28823 7.01429 9.77273 5.22866 10.3865 3.67822C10.8919 2.40197 11.4705 1.33135 12.1055 0.480225C10.2967 0.934287 8.60898 1.69672 7.10211 2.70879C7.13823 2.89941 7.15792 3.09579 7.15792 3.29679Z" fill="white"/>
<path d="M24.8421 28.7031C24.8421 26.966 26.2553 25.5527 27.9925 25.5527C28.2558 25.5527 28.5114 25.5856 28.756 25.6467C29.3161 24.908 29.8142 24.1198 30.241 23.2891H23.0094C22.6707 25.1337 22.2017 26.8359 21.6135 28.3217C21.1082 29.5979 20.5295 30.6686 19.8945 31.5197C21.7034 31.0656 23.3911 30.3032 24.898 29.2911C24.8618 29.1005 24.8421 28.9041 24.8421 28.7031Z" fill="white"/>
<path d="M21.1026 23.2891H12.7518C12.5129 24.0541 11.989 24.6939 11.3057 25.0859C12.4334 29.3841 14.2784 32 15.9997 32C17.9492 32 20.0576 28.6444 21.1026 23.2891Z" fill="white"/>
<path d="M31.0566 21.414C31.6669 19.7222 32.0003 17.8993 32.0003 15.9999C32.0003 14.1904 31.6979 12.4503 31.1417 10.8269H25.2641C24.992 11.698 24.3508 12.4072 23.5247 12.7722C23.6031 13.8265 23.6437 14.9057 23.6437 15.9999C23.6437 17.8647 23.527 19.6867 23.3027 21.414H31.0566Z" fill="white"/>
<path d="M22.2558 11.1649C22.9592 11.1649 23.5313 10.5928 23.5313 9.88945C23.5313 9.18614 22.9592 8.61401 22.2558 8.61401C21.5526 8.61401 20.9805 9.18614 20.9805 9.88945C20.9805 10.5928 21.5526 11.1649 22.2558 11.1649Z" fill="white"/>
<path d="M9.74419 23.627C10.4486 23.627 11.0196 23.056 11.0196 22.3516C11.0196 21.6472 10.4486 21.0762 9.74419 21.0762C9.03978 21.0762 8.46875 21.6472 8.46875 22.3516C8.46875 23.056 9.03978 23.627 9.74419 23.627Z" fill="white"/>
<path d="M4.00786 4.57236C4.71226 4.57236 5.2833 4.00133 5.2833 3.29692C5.2833 2.59252 4.71226 2.02148 4.00786 2.02148C3.30345 2.02148 2.73242 2.59252 2.73242 3.29692C2.73242 4.00133 3.30345 4.57236 4.00786 4.57236Z" fill="white"/>
<path d="M27.9922 27.4277C27.2889 27.4277 26.7168 27.9999 26.7168 28.7032C26.7168 29.4065 27.2889 29.9786 27.9922 29.9786C28.6955 29.9786 29.2676 29.4065 29.2676 28.7032C29.2676 27.9999 28.6955 27.4277 27.9922 27.4277Z" fill="white"/>
</svg>
