<svg width="32" height="26" viewBox="0 0 32 26" fill="none" xmlns="http://www.w3.org/2000/svg">
<path d="M28.1739 4.65212H24.8348L22.9913 1.86952C22.2957 0.826038 21.0783 0.199951 19.8261 0.199951H12.1739C10.9217 0.199951 9.70435 0.826038 9.0087 1.86952L7.16522 4.65212H3.82609C1.70435 4.65212 0 6.35647 0 8.47821V21.9739C0 24.0956 1.70435 25.8 3.82609 25.8H28.1739C30.2957 25.8 32 24.0956 32 21.9739V8.47821C32 6.35647 30.2957 4.65212 28.1739 4.65212ZM16 22.6695C11.2348 22.6695 7.37391 18.8086 7.37391 14.0434C7.37391 9.27821 11.2348 5.45212 16 5.45212C20.7652 5.45212 24.6261 9.31299 24.6261 14.0782C24.6261 18.8086 20.7652 22.6695 16 22.6695ZM27.687 10.0434C27.6522 10.0434 27.6174 10.0434 27.5478 10.0434H26.1565C25.5304 10.0086 25.0435 9.48691 25.0783 8.86082C25.113 8.26952 25.5652 7.81734 26.1565 7.78256H27.5478C28.1739 7.74778 28.6957 8.23473 28.7304 8.86082C28.7652 9.48691 28.313 10.0086 27.687 10.0434Z" fill="white"/>
</svg>
