<svg width="22" height="22" viewBox="0 0 22 22" fill="none" xmlns="http://www.w3.org/2000/svg">
<path d="M10 5C10 5.9889 9.7068 6.9556 9.1573 7.7779C8.6079 8.6001 7.827 9.241 6.9134 9.6194C5.9998 9.9978 4.99446 10.0969 4.02455 9.9039C3.05465 9.711 2.16373 9.2348 1.46447 8.5355C0.765208 7.8363 0.288998 6.9454 0.096078 5.9755C-0.096852 5.0055 0.00216812 4.00022 0.380598 3.08659C0.759038 2.17295 1.39991 1.39206 2.22215 0.84265C3.0444 0.29325 4.0111 0 5 0C6.3261 0 7.5979 0.52679 8.5355 1.46447C9.4732 2.40215 10 3.67392 10 5ZM17 10C17.9889 10 18.9556 9.7068 19.7779 9.1573C20.6001 8.6079 21.241 7.827 21.6194 6.9134C21.9978 5.9998 22.0969 4.99446 21.9039 4.02455C21.711 3.05465 21.2348 2.16373 20.5355 1.46447C19.8363 0.76521 18.9454 0.289 17.9755 0.0960798C17.0055 -0.0968502 16.0002 0.00216997 15.0866 0.3806C14.173 0.75904 13.3921 1.39991 12.8427 2.22215C12.2932 3.0444 12 4.0111 12 5C12 6.3261 12.5268 7.5979 13.4645 8.5355C14.4022 9.4732 15.6739 10 17 10ZM5 12C4.0111 12 3.0444 12.2932 2.22215 12.8427C1.39991 13.3921 0.759038 14.173 0.380598 15.0866C0.00216812 16.0002 -0.096852 17.0055 0.096078 17.9755C0.288998 18.9454 0.765208 19.8363 1.46447 20.5355C2.16373 21.2348 3.05465 21.711 4.02455 21.9039C4.99446 22.0969 5.9998 21.9978 6.9134 21.6194C7.827 21.241 8.6079 20.6001 9.1573 19.7779C9.7068 18.9556 10 17.9889 10 17C10 15.6739 9.4732 14.4022 8.5355 13.4645C7.5979 12.5268 6.3261 12 5 12ZM21 16H18V13C18 12.7348 17.8946 12.4804 17.7071 12.2929C17.5196 12.1054 17.2652 12 17 12C16.7348 12 16.4804 12.1054 16.2929 12.2929C16.1054 12.4804 16 12.7348 16 13V16H13C12.7348 16 12.4804 16.1054 12.2929 16.2929C12.1054 16.4804 12 16.7348 12 17C12 17.2652 12.1054 17.5196 12.2929 17.7071C12.4804 17.8946 12.7348 18 13 18H16V21C16 21.2652 16.1054 21.5196 16.2929 21.7071C16.4804 21.8946 16.7348 22 17 22C17.2652 22 17.5196 21.8946 17.7071 21.7071C17.8946 21.5196 18 21.2652 18 21V18H21C21.2652 18 21.5196 17.8946 21.7071 17.7071C21.8946 17.5196 22 17.2652 22 17C22 16.7348 21.8946 16.4804 21.7071 16.2929C21.5196 16.1054 21.2652 16 21 16Z" fill="white"/>
</svg>
