<svg width="17" height="14" viewBox="0 0 17 14" fill="none" xmlns="http://www.w3.org/2000/svg">
<path d="M6.0075 13.5431C12.0608 13.5431 15.3712 8.5184 15.3712 4.16117C15.3712 4.01847 15.3683 3.87643 15.3619 3.73497C16.006 3.26799 16.5619 2.68979 17.0035 2.02749C16.4138 2.29016 15.7793 2.46694 15.1136 2.54665C15.7931 2.13844 16.3147 1.49264 16.5608 0.722857C15.9148 1.10683 15.208 1.37752 14.471 1.52324C13.8705 0.882307 13.0155 0.481445 12.0688 0.481445C10.2514 0.481445 8.77758 1.95813 8.77758 3.77837C8.77758 4.03715 8.80649 4.28878 8.86296 4.53023C6.12774 4.39233 3.70235 3.08022 2.07915 1.08509C1.78679 1.5883 1.63302 2.16021 1.63353 2.74241C1.63353 3.88642 2.21452 4.89631 3.09805 5.48715C2.57543 5.47116 2.06428 5.32972 1.60758 5.07473C1.60709 5.08858 1.60709 5.10206 1.60709 5.11686C1.60709 6.71374 2.74148 8.04704 4.24734 8.34915C3.96452 8.42633 3.67268 8.46534 3.37955 8.46517C3.16786 8.46517 2.96155 8.44431 2.76104 8.40574C3.18002 9.71589 4.39493 10.6693 5.83536 10.6959C4.70896 11.5805 3.29005 12.1074 1.7479 12.1074C1.48556 12.1076 1.22344 12.0923 0.962891 12.0617C2.41939 12.9971 4.14884 13.5429 6.00767 13.5429" fill="black"/>
</svg>
